<?xml version="1.0" encoding="utf-8"?>
<!-- Generator: Adobe Illustrator 26.5.0, SVG Export Plug-In . SVG Version: 6.00 Build 0)  -->
<svg version="1.1" id="Calque_1" xmlns="http://www.w3.org/2000/svg" xmlns:xlink="http://www.w3.org/1999/xlink" x="0px" y="0px"
	 viewBox="0 0 324 84" style="enable-background:new 0 0 324 84;" xml:space="preserve">
<style type="text/css">
	.st0{fill:#FFFFFF;}
	.st1{fill:#353535;}
	.st2{opacity:0.1;}
	.st3{opacity:0.5;}
	.st4{fill:#2EC4B6;}
	.st5{opacity:0.4;}
	.st6{fill:#FF9F1C;}
	.st7{opacity:0.3;}
	.st8{opacity:0.1;fill:#2EC4B6;}
</style>
<g>
	<g>
		<g>
			<path class="st0" d="M1541.2,78c-1.7,0-3.1-0.4-4.3-1.2c-1.1-0.8-2-2-2.7-3.6l-24.9-56c-0.7-1.6-0.9-3-0.6-4.2
				c0.3-1.2,1-2.2,2-2.9c1-0.7,2.2-1.1,3.6-1.1c1.8,0,3.2,0.4,4.2,1.2c0.9,0.8,1.7,2,2.3,3.6l22.6,52.4h-4.1l22.5-52.5
				c0.7-1.5,1.5-2.7,2.5-3.5c1-0.8,2.3-1.2,4-1.2c1.4,0,2.6,0.4,3.5,1.1c0.9,0.7,1.5,1.7,1.8,2.9c0.3,1.2,0,2.6-0.7,4.2l-24.9,56
				c-0.7,1.6-1.6,2.8-2.6,3.6C1544.4,77.6,1543,78,1541.2,78z"/>
		</g>
		<g>
			<path class="st0" d="M1592.1,77.9c-1.9,0-3.4-0.6-4.4-1.7c-1-1.1-1.5-2.7-1.5-4.8V36.4c0-2.1,0.5-3.7,1.5-4.8
				c1-1.1,2.5-1.7,4.4-1.7c1.9,0,3.4,0.6,4.4,1.7c1.1,1.1,1.6,2.7,1.6,4.8v35.1c0,2-0.5,3.6-1.5,4.8
				C1595.6,77.4,1594.1,77.9,1592.1,77.9z"/>
		</g>
		<g>
			<path class="st0" d="M1637.5,78.2c-3.9,0-7.4-1-10.4-3c-3-2-4.9-4.6-5.9-7.9l1.1-2.4v7c0,2-0.5,3.5-1.5,4.5
				c-1,1.1-2.5,1.6-4.3,1.6c-1.9,0-3.4-0.5-4.4-1.6c-1-1.1-1.5-2.6-1.5-4.5V15.2c0-2,0.5-3.5,1.5-4.5c1-1,2.5-1.5,4.4-1.5
				c1.9,0,3.4,0.5,4.4,1.5c1.1,1,1.6,2.5,1.6,4.5V40h-1.1c1-3.1,3-5.6,5.9-7.5c2.9-1.9,6.3-2.9,10.2-2.9c4.1,0,7.7,1,10.8,3
				c3.1,2,5.4,4.8,7.2,8.4c1.7,3.6,2.6,7.9,2.6,12.9c0,5-0.9,9.3-2.6,12.9c-1.7,3.7-4.1,6.5-7.2,8.5
				C1645.2,77.2,1641.6,78.2,1637.5,78.2z M1634.2,69.1c2.4,0,4.4-0.6,6.2-1.7c1.8-1.1,3.2-2.8,4.2-5.1c1-2.3,1.5-5.1,1.5-8.5
				c0-5.1-1.1-8.9-3.2-11.4c-2.2-2.5-5-3.8-8.6-3.8c-2.4,0-4.4,0.6-6.2,1.7c-1.8,1.1-3.2,2.8-4.2,5.1c-1,2.3-1.5,5.1-1.5,8.5
				c0,5,1.1,8.8,3.2,11.4C1627.7,67.8,1630.6,69.1,1634.2,69.1z"/>
		</g>
		<g>
			<path class="st0" d="M1673.8,77.9c-1.9,0-3.4-0.6-4.4-1.7c-1-1.1-1.5-2.7-1.5-4.8V36.4c0-2.1,0.5-3.7,1.5-4.8
				c1-1.1,2.5-1.7,4.4-1.7c1.9,0,3.4,0.6,4.4,1.7c1.1,1.1,1.6,2.7,1.6,4.8v35.1c0,2-0.5,3.6-1.5,4.8
				C1677.3,77.4,1675.8,77.9,1673.8,77.9z"/>
		</g>
		<g>
			<path class="st0" d="M1698.2,78c-1.9,0-3.4-0.5-4.4-1.6c-1-1.1-1.5-2.6-1.5-4.5V35.8c0-2,0.5-3.5,1.5-4.5c1-1,2.5-1.5,4.3-1.5
				c1.8,0,3.3,0.5,4.3,1.5c1,1,1.5,2.5,1.5,4.5v6.5l-1.1-2.4c1.4-3.4,3.6-5.9,6.5-7.7c3-1.8,6.3-2.6,10.1-2.6c3.8,0,6.8,0.7,9.3,2.1
				c2.4,1.4,4.2,3.5,5.4,6.4c1.2,2.8,1.8,6.4,1.8,10.7v23.1c0,2-0.5,3.5-1.5,4.5c-1,1.1-2.5,1.6-4.4,1.6c-1.9,0-3.4-0.5-4.4-1.6
				c-1.1-1.1-1.6-2.6-1.6-4.5V49.4c0-3.6-0.7-6.3-2.1-7.9c-1.4-1.7-3.5-2.5-6.4-2.5c-3.5,0-6.3,1.1-8.4,3.3
				c-2.1,2.2-3.1,5.1-3.1,8.7v20.9C1704.2,76,1702.2,78,1698.2,78z"/>
		</g>
		<g>
			<path class="st0" d="M1673.8,20.1c-1.9,0-3.4-0.5-4.4-1.4c-1.1-0.9-1.6-2.3-1.6-3.9c0-1.7,0.5-3.1,1.6-4c1.1-0.9,2.5-1.4,4.4-1.4
				c2,0,3.4,0.5,4.5,1.4c1,0.9,1.5,2.3,1.5,4c0,1.7-0.5,3-1.5,3.9C1677.3,19.6,1675.8,20.1,1673.8,20.1z"/>
		</g>
		<g>
			<path class="st0" d="M1592.1,20.1c-1.9,0-3.4-0.5-4.4-1.4c-1.1-0.9-1.6-2.3-1.6-3.9c0-1.7,0.5-3.1,1.6-4c1.1-0.9,2.5-1.4,4.4-1.4
				c2,0,3.4,0.5,4.5,1.4c1,0.9,1.5,2.3,1.5,4c0,1.7-0.5,3-1.5,3.9C1595.6,19.6,1594.1,20.1,1592.1,20.1z"/>
		</g>
	</g>
	<g>
		<g>
			<g>
				<path class="st0" d="M1431.2,68.5c-0.1-4.7,0.4-8.4,0.9-10.8c0,0,3.3-17,3.3-18.7c0-0.7-0.1-1.1-0.1-1.1
					c-0.7-1.4-0.9-2.9-0.5-4.4c0.6-2.5,2.5-3.9,4.9-3.5c1,0.2,2,0.8,2.9,1.4c0.7,0.5,1.2,0.6,2,0.3c6.9-2.2,13.9-2.2,20.8,0
					c0.7,0.2,1.2,0.3,1.9-0.3c0.6-0.5,1.4-0.9,2.1-1.2c2.3-0.9,4.6,0.1,5.5,2.4c0.7,1.8,0.6,3.5-0.2,5.2c0,0-0.1,0.3-0.1,1
					c-0.5,4.7,2.5,16.1,2.5,16.1c0.9,3,1.8,7.6,1.8,13.6c-1.1,1.2-11.9,12.6-27.7,10.7C1439.8,77.8,1433,70.5,1431.2,68.5z
					 M1471.1,52.6c0.1-0.1,0.1-0.2,0.2-0.3c-0.7-0.6-1.4-1.3-2.2-1.7c-0.9-0.5-2-0.6-3-1c-0.3-0.1-0.7-0.3-0.9-0.6
					c-1-1.5-2.3-2.7-3.9-3.4c-3.3-1.5-6.7-1.7-10.2-0.8c-2.7,0.7-5,2-6.6,4.4c-0.1,0.2-0.5,0.3-0.8,0.4c-1,0.3-2.2,0.5-3.1,1
					c-0.8,0.4-1.4,1.1-2.1,1.7c0.1,0.1,0.1,0.2,0.2,0.3c1.5-0.9,3.2-1.6,5-1.5c0.3,0.9,0,1.4-0.7,1.9c-1.6,1-2.9,2.4-3.7,4.2
					c1.4-1,2.8-1.9,4.3-2.9c0.8-0.5,1.4-0.4,1.9,0.4c-0.7,0.9-1.5,1.7-1.5,3c0.3-0.2,0.6-0.5,0.8-0.8c1-1,2-1.7,3.7-1.3
					c3.1,0.7,4.2-0.2,5.1-3.2c0.5-1.9-0.1-3.2-2-3.9c-0.3-0.1-0.5-0.3-0.8-0.5c0.2-0.3,0.4-0.6,0.7-0.8c2.2-1.1,4.5-1.1,6.7,0
					c0.3,0.2,0.5,0.5,0.8,0.8c-0.3,0.2-0.5,0.5-0.8,0.6c-1.6,0.6-2.4,1.9-2,3.5c0.2,0.7,0.4,1.4,0.7,2c0.6,1.2,1.5,1.9,2.9,1.8
					c0.8,0,1.6-0.1,2.3-0.3c0.7-0.2,1.3-0.1,1.8,0.4c0.7,0.6,1.3,1.2,2,1.8c0.1-0.1,0.2-0.1,0.2-0.2c-0.6-1-1.1-2-1.7-3
					c0.4-0.7,1.1-0.8,1.8-0.3c1.4,1,2.9,1.9,4.3,2.9c-0.1-0.2-0.2-0.6-0.4-0.8c-1.1-1.2-2.1-2.4-3.4-3.4c-0.7-0.6-0.9-1-0.7-1.8
					C1467.9,51,1469.5,51.7,1471.1,52.6z M1443.9,46.5c0.1-0.1-0.8-1.4-1.9-1.2c-1,0.2-1.3,1.6-1.2,1.7c0.1,0.1,0.5-0.7,1.3-0.9
					C1443.1,45.9,1443.8,46.6,1443.9,46.5z M1465.9,45.7c0.1,0.1,0.8-0.4,1.7-0.1c1,0.3,1.4,1.2,1.5,1.2c0.1-0.1-0.2-1.8-1.4-2
					C1466.7,44.5,1465.8,45.5,1465.9,45.7z"/>
			</g>
		</g>
		<g>
			<path class="st0" d="M1455,81.2c-21.1,0-38.2-17.1-38.2-38.2s17.1-38.2,38.2-38.2s38.2,17.1,38.2,38.2S1476.1,81.2,1455,81.2z
				 M1455,8.5c-19,0-34.5,15.5-34.5,34.5c0,19,15.5,34.5,34.5,34.5c19,0,34.5-15.5,34.5-34.5C1489.5,24,1474,8.5,1455,8.5z"/>
		</g>
	</g>
</g>
<g>
	<g>
		<g>
			<path class="st1" d="M1127.2,78c-1.7,0-3.1-0.4-4.3-1.2c-1.1-0.8-2-2-2.7-3.6l-24.9-56c-0.7-1.6-0.9-3-0.6-4.2
				c0.3-1.2,1-2.2,2-2.9c1-0.7,2.2-1.1,3.6-1.1c1.8,0,3.2,0.4,4.2,1.2c0.9,0.8,1.7,2,2.3,3.6l22.6,52.4h-4.1l22.5-52.5
				c0.7-1.5,1.5-2.7,2.5-3.5c1-0.8,2.3-1.2,4-1.2c1.4,0,2.6,0.4,3.5,1.1c0.9,0.7,1.5,1.7,1.8,2.9c0.3,1.2,0,2.6-0.7,4.2l-24.9,56
				c-0.7,1.6-1.6,2.8-2.6,3.6C1130.4,77.6,1129,78,1127.2,78z"/>
		</g>
		<g>
			<path class="st1" d="M1178.1,77.9c-1.9,0-3.4-0.6-4.4-1.7c-1-1.1-1.5-2.7-1.5-4.8V36.4c0-2.1,0.5-3.7,1.5-4.8
				c1-1.1,2.5-1.7,4.4-1.7c1.9,0,3.4,0.6,4.4,1.7c1.1,1.1,1.6,2.7,1.6,4.8v35.1c0,2-0.5,3.6-1.5,4.8
				C1181.6,77.4,1180.1,77.9,1178.1,77.9z"/>
		</g>
		<g>
			<path class="st1" d="M1223.5,78.2c-3.9,0-7.4-1-10.4-3c-3-2-4.9-4.6-5.9-7.9l1.1-2.4v7c0,2-0.5,3.5-1.5,4.5
				c-1,1.1-2.5,1.6-4.3,1.6c-1.9,0-3.4-0.5-4.4-1.6c-1-1.1-1.5-2.6-1.5-4.5V15.2c0-2,0.5-3.5,1.5-4.5c1-1,2.5-1.5,4.4-1.5
				c1.9,0,3.4,0.5,4.4,1.5c1.1,1,1.6,2.5,1.6,4.5V40h-1.1c1-3.1,3-5.6,5.9-7.5c2.9-1.9,6.3-2.9,10.2-2.9c4.1,0,7.7,1,10.8,3
				c3.1,2,5.4,4.8,7.2,8.4c1.7,3.6,2.6,7.9,2.6,12.9c0,5-0.9,9.3-2.6,12.9c-1.7,3.7-4.1,6.5-7.2,8.5
				C1231.2,77.2,1227.6,78.2,1223.5,78.2z M1220.2,69.1c2.4,0,4.4-0.6,6.2-1.7c1.8-1.1,3.2-2.8,4.2-5.1c1-2.3,1.5-5.1,1.5-8.5
				c0-5.1-1.1-8.9-3.2-11.4c-2.2-2.5-5-3.8-8.6-3.8c-2.4,0-4.4,0.6-6.2,1.7c-1.8,1.1-3.2,2.8-4.2,5.1c-1,2.3-1.5,5.1-1.5,8.5
				c0,5,1.1,8.8,3.2,11.4C1213.7,67.8,1216.6,69.1,1220.2,69.1z"/>
		</g>
		<g>
			<path class="st1" d="M1259.8,77.9c-1.9,0-3.4-0.6-4.4-1.7c-1-1.1-1.5-2.7-1.5-4.8V36.4c0-2.1,0.5-3.7,1.5-4.8
				c1-1.1,2.5-1.7,4.4-1.7c1.9,0,3.4,0.6,4.4,1.7c1.1,1.1,1.6,2.7,1.6,4.8v35.1c0,2-0.5,3.6-1.5,4.8
				C1263.3,77.4,1261.8,77.9,1259.8,77.9z"/>
		</g>
		<g>
			<path class="st1" d="M1284.2,78c-1.9,0-3.4-0.5-4.4-1.6c-1-1.1-1.5-2.6-1.5-4.5V35.8c0-2,0.5-3.5,1.5-4.5c1-1,2.5-1.5,4.3-1.5
				c1.8,0,3.3,0.5,4.3,1.5c1,1,1.5,2.5,1.5,4.5v6.5l-1.1-2.4c1.4-3.4,3.6-5.9,6.5-7.7c3-1.8,6.3-2.6,10.1-2.6c3.8,0,6.8,0.7,9.3,2.1
				c2.4,1.4,4.2,3.5,5.4,6.4c1.2,2.8,1.8,6.4,1.8,10.7v23.1c0,2-0.5,3.5-1.5,4.5c-1,1.1-2.5,1.6-4.4,1.6c-1.9,0-3.4-0.5-4.4-1.6
				c-1.1-1.1-1.6-2.6-1.6-4.5V49.4c0-3.6-0.7-6.3-2.1-7.9c-1.4-1.7-3.5-2.5-6.4-2.5c-3.5,0-6.3,1.1-8.4,3.3
				c-2.1,2.2-3.1,5.1-3.1,8.7v20.9C1290.2,76,1288.2,78,1284.2,78z"/>
		</g>
		<g class="st2">
			<path class="st1" d="M1259.8,24.7c-3.5,0-6.3-0.9-8.2-2.6c-2-1.8-2.9-4.2-2.9-7.3c0-3.2,1-5.7,2.9-7.4c2-1.7,4.7-2.6,8.2-2.6
				c3.6,0,6.4,0.9,8.3,2.6c1.9,1.7,2.9,4.2,2.9,7.4c0,3.1-1,5.6-2.9,7.3C1266.2,23.8,1263.4,24.7,1259.8,24.7z"/>
		</g>
		<g class="st3">
			<path class="st1" d="M1259.8,22.4c-2.7,0-4.8-0.7-6.3-2c-1.5-1.4-2.3-3.2-2.3-5.6c0-2.5,0.8-4.4,2.3-5.7c1.5-1.3,3.6-2,6.3-2
				c2.8,0,4.9,0.7,6.4,2c1.5,1.3,2.2,3.2,2.2,5.7c0,2.4-0.7,4.3-2.2,5.6C1264.7,21.7,1262.6,22.4,1259.8,22.4z"/>
		</g>
		<g>
			<path class="st1" d="M1259.8,20.1c-1.9,0-3.4-0.5-4.4-1.4c-1.1-0.9-1.6-2.3-1.6-3.9c0-1.7,0.5-3.1,1.6-4c1.1-0.9,2.5-1.4,4.4-1.4
				c2,0,3.4,0.5,4.5,1.4c1,0.9,1.5,2.3,1.5,4c0,1.7-0.5,3-1.5,3.9C1263.3,19.6,1261.8,20.1,1259.8,20.1z"/>
		</g>
		<g class="st2">
			<path class="st1" d="M1178.1,24.7c-3.5,0-6.3-0.9-8.2-2.6c-2-1.8-2.9-4.2-2.9-7.3c0-3.2,1-5.7,2.9-7.4c2-1.7,4.7-2.6,8.2-2.6
				c3.6,0,6.4,0.9,8.3,2.6c1.9,1.7,2.9,4.2,2.9,7.4c0,3.1-1,5.6-2.9,7.3C1184.5,23.8,1181.8,24.7,1178.1,24.7z"/>
		</g>
		<g class="st3">
			<path class="st1" d="M1178.1,22.4c-2.7,0-4.8-0.7-6.3-2c-1.5-1.4-2.3-3.2-2.3-5.6c0-2.5,0.8-4.4,2.3-5.7c1.5-1.3,3.6-2,6.3-2
				c2.8,0,4.9,0.7,6.4,2c1.5,1.3,2.2,3.2,2.2,5.7c0,2.4-0.7,4.3-2.2,5.6C1183.1,21.7,1180.9,22.4,1178.1,22.4z"/>
		</g>
		<g>
			<path class="st1" d="M1178.1,20.1c-1.9,0-3.4-0.5-4.4-1.4c-1.1-0.9-1.6-2.3-1.6-3.9c0-1.7,0.5-3.1,1.6-4c1.1-0.9,2.5-1.4,4.4-1.4
				c2,0,3.4,0.5,4.5,1.4c1,0.9,1.5,2.3,1.5,4c0,1.7-0.5,3-1.5,3.9C1181.6,19.6,1180.1,20.1,1178.1,20.1z"/>
		</g>
	</g>
	<g>
		<g>
			<g>
				<path class="st1" d="M1017.2,68.5c-0.1-4.7,0.4-8.4,0.9-10.8c0,0,3.3-17,3.3-18.7c0-0.7-0.1-1.1-0.1-1.1
					c-0.7-1.4-0.9-2.9-0.5-4.4c0.6-2.5,2.5-3.9,4.9-3.5c1,0.2,2,0.8,2.9,1.4c0.7,0.5,1.2,0.6,2,0.3c6.9-2.2,13.9-2.2,20.8,0
					c0.7,0.2,1.2,0.3,1.9-0.3c0.6-0.5,1.4-0.9,2.1-1.2c2.3-0.9,4.6,0.1,5.5,2.4c0.7,1.8,0.6,3.5-0.2,5.2c0,0-0.1,0.3-0.1,1
					c-0.5,4.7,2.5,16.1,2.5,16.1c0.9,3,1.8,7.6,1.8,13.6c-1.1,1.2-11.9,12.6-27.7,10.7C1025.8,77.8,1019,70.5,1017.2,68.5z
					 M1057.1,52.6c0.1-0.1,0.1-0.2,0.2-0.3c-0.7-0.6-1.4-1.3-2.2-1.7c-0.9-0.5-2-0.6-3-1c-0.3-0.1-0.7-0.3-0.9-0.6
					c-1-1.5-2.3-2.7-3.9-3.4c-3.3-1.5-6.7-1.7-10.2-0.8c-2.7,0.7-5,2-6.6,4.4c-0.1,0.2-0.5,0.3-0.8,0.4c-1,0.3-2.2,0.5-3.1,1
					c-0.8,0.4-1.4,1.1-2.1,1.7c0.1,0.1,0.1,0.2,0.2,0.3c1.5-0.9,3.2-1.6,5-1.5c0.3,0.9,0,1.4-0.7,1.9c-1.6,1-2.9,2.4-3.7,4.2
					c1.4-1,2.8-1.9,4.3-2.9c0.8-0.5,1.4-0.4,1.9,0.4c-0.7,0.9-1.5,1.7-1.5,3c0.3-0.2,0.6-0.5,0.8-0.8c1-1,2-1.7,3.7-1.3
					c3.1,0.7,4.2-0.2,5.1-3.2c0.5-1.9-0.1-3.2-2-3.9c-0.3-0.1-0.5-0.3-0.8-0.5c0.2-0.3,0.4-0.6,0.7-0.8c2.2-1.1,4.5-1.1,6.7,0
					c0.3,0.2,0.5,0.5,0.8,0.8c-0.3,0.2-0.5,0.5-0.8,0.6c-1.6,0.6-2.4,1.9-2,3.5c0.2,0.7,0.4,1.4,0.7,2c0.6,1.2,1.5,1.9,2.9,1.8
					c0.8,0,1.6-0.1,2.3-0.3c0.7-0.2,1.3-0.1,1.8,0.4c0.7,0.6,1.3,1.2,2,1.8c0.1-0.1,0.2-0.1,0.2-0.2c-0.6-1-1.1-2-1.7-3
					c0.4-0.7,1.1-0.8,1.8-0.3c1.4,1,2.9,1.9,4.3,2.9c-0.1-0.2-0.2-0.6-0.4-0.8c-1.1-1.2-2.1-2.4-3.4-3.4c-0.7-0.6-0.9-1-0.7-1.8
					C1053.9,51,1055.5,51.7,1057.1,52.6z M1029.9,46.5c0.1-0.1-0.8-1.4-1.9-1.2c-1,0.2-1.3,1.6-1.2,1.7c0.1,0.1,0.5-0.7,1.3-0.9
					C1029.1,45.9,1029.8,46.6,1029.9,46.5z M1051.9,45.7c0.1,0.1,0.8-0.4,1.7-0.1c1,0.3,1.4,1.2,1.5,1.2c0.1-0.1-0.2-1.8-1.4-2
					C1052.7,44.5,1051.8,45.5,1051.9,45.7z"/>
			</g>
		</g>
		<g>
			<path class="st1" d="M1041,81.2c-21.1,0-38.2-17.1-38.2-38.2s17.1-38.2,38.2-38.2c21.1,0,38.2,17.1,38.2,38.2
				S1062.1,81.2,1041,81.2z M1041,8.5c-19,0-34.5,15.5-34.5,34.5c0,19,15.5,34.5,34.5,34.5c19,0,34.5-15.5,34.5-34.5
				C1075.5,24,1060,8.5,1041,8.5z"/>
		</g>
		<g class="st3">
			<path class="st1" d="M1041,83.9c-22.6,0-40.9-18.4-40.9-40.9c0-22.6,18.4-40.9,40.9-40.9c22.6,0,40.9,18.4,40.9,40.9
				C1081.9,65.6,1063.6,83.9,1041,83.9z M1041,4.6c-21.2,0-38.4,17.2-38.4,38.4s17.2,38.4,38.4,38.4c21.2,0,38.4-17.2,38.4-38.4
				S1062.2,4.6,1041,4.6z"/>
		</g>
		<g class="st2">
			<path class="st1" d="M1041,86c-23.7,0-43-19.3-43-43c0-23.7,19.3-43,43-43s43,19.3,43,43C1084,66.7,1064.7,86,1041,86z M1041,1.9
				c-22.6,0-41.1,18.4-41.1,41.1c0,22.6,18.4,41.1,41.1,41.1c22.6,0,41.1-18.4,41.1-41.1C1082.1,20.4,1063.6,1.9,1041,1.9z"/>
		</g>
	</g>
</g>
<g>
	<g>
		<g>
			<path class="st1" d="M129.2,78c-1.7,0-3.1-0.4-4.3-1.2c-1.1-0.8-2-2-2.7-3.6l-24.9-56c-0.7-1.6-0.9-3-0.6-4.2
				c0.3-1.2,1-2.2,2-2.9c1-0.7,2.2-1.1,3.6-1.1c1.8,0,3.2,0.4,4.2,1.2c0.9,0.8,1.7,2,2.3,3.6l22.6,52.4h-4.1L150,13.8
				c0.7-1.5,1.5-2.7,2.5-3.5c1-0.8,2.3-1.2,4-1.2c1.4,0,2.6,0.4,3.5,1.1c0.9,0.7,1.5,1.7,1.8,2.9c0.3,1.2,0,2.6-0.7,4.2l-24.9,56
				c-0.7,1.6-1.6,2.8-2.6,3.6C132.4,77.6,131,78,129.2,78z"/>
		</g>
		<g>
			<path class="st1" d="M180.1,77.9c-1.9,0-3.4-0.6-4.4-1.7c-1-1.1-1.5-2.7-1.5-4.8V36.4c0-2.1,0.5-3.7,1.5-4.8
				c1-1.1,2.5-1.7,4.4-1.7c1.9,0,3.4,0.6,4.4,1.7c1.1,1.1,1.6,2.7,1.6,4.8v35.1c0,2-0.5,3.6-1.5,4.8
				C183.6,77.4,182.1,77.9,180.1,77.9z"/>
		</g>
		<g>
			<path class="st1" d="M225.5,78.2c-3.9,0-7.4-1-10.4-3c-3-2-4.9-4.6-5.9-7.9l1.1-2.4v7c0,2-0.5,3.5-1.5,4.5
				c-1,1.1-2.5,1.6-4.3,1.6c-1.9,0-3.4-0.5-4.4-1.6c-1-1.1-1.5-2.6-1.5-4.5V15.2c0-2,0.5-3.5,1.5-4.5c1-1,2.5-1.5,4.4-1.5
				c1.9,0,3.4,0.5,4.4,1.5c1.1,1,1.6,2.5,1.6,4.5V40h-1.1c1-3.1,3-5.6,5.9-7.5c2.9-1.9,6.3-2.9,10.2-2.9c4.1,0,7.7,1,10.8,3
				c3.1,2,5.4,4.8,7.2,8.4c1.7,3.6,2.6,7.9,2.6,12.9c0,5-0.9,9.3-2.6,12.9c-1.7,3.7-4.1,6.5-7.2,8.5
				C233.2,77.2,229.6,78.2,225.5,78.2z M222.2,69.1c2.4,0,4.4-0.6,6.2-1.7c1.8-1.1,3.2-2.8,4.2-5.1c1-2.3,1.5-5.1,1.5-8.5
				c0-5.1-1.1-8.9-3.2-11.4c-2.2-2.5-5-3.8-8.6-3.8c-2.4,0-4.4,0.6-6.2,1.7c-1.8,1.1-3.2,2.8-4.2,5.1c-1,2.3-1.5,5.1-1.5,8.5
				c0,5,1.1,8.8,3.2,11.4C215.7,67.8,218.6,69.1,222.2,69.1z"/>
		</g>
		<g>
			<path class="st1" d="M261.8,77.9c-1.9,0-3.4-0.6-4.4-1.7c-1-1.1-1.5-2.7-1.5-4.8V36.4c0-2.1,0.5-3.7,1.5-4.8
				c1-1.1,2.5-1.7,4.4-1.7c1.9,0,3.4,0.6,4.4,1.7c1.1,1.1,1.6,2.7,1.6,4.8v35.1c0,2-0.5,3.6-1.5,4.8
				C265.3,77.4,263.8,77.9,261.8,77.9z"/>
		</g>
		<g>
			<path class="st1" d="M286.2,78c-1.9,0-3.4-0.5-4.4-1.6c-1-1.1-1.5-2.6-1.5-4.5V35.8c0-2,0.5-3.5,1.5-4.5c1-1,2.5-1.5,4.3-1.5
				c1.8,0,3.3,0.5,4.3,1.5c1,1,1.5,2.5,1.5,4.5v6.5l-1.1-2.4c1.4-3.4,3.6-5.9,6.5-7.7c3-1.8,6.3-2.6,10.1-2.6c3.8,0,6.8,0.7,9.3,2.1
				c2.4,1.4,4.2,3.5,5.4,6.4c1.2,2.8,1.8,6.4,1.8,10.7v23.1c0,2-0.5,3.5-1.5,4.5c-1,1.1-2.5,1.6-4.4,1.6c-1.9,0-3.4-0.5-4.4-1.6
				c-1.1-1.1-1.6-2.6-1.6-4.5V49.4c0-3.6-0.7-6.3-2.1-7.9c-1.4-1.7-3.5-2.5-6.4-2.5c-3.5,0-6.3,1.1-8.4,3.3
				c-2.1,2.2-3.1,5.1-3.1,8.7v20.9C292.2,76,290.2,78,286.2,78z"/>
		</g>
		<g class="st2">
			<path class="st4" d="M261.8,24.7c-3.5,0-6.3-0.9-8.2-2.6c-2-1.8-2.9-4.2-2.9-7.3c0-3.2,1-5.7,2.9-7.4c2-1.7,4.7-2.6,8.2-2.6
				c3.6,0,6.4,0.9,8.3,2.6c1.9,1.7,2.9,4.2,2.9,7.4c0,3.1-1,5.6-2.9,7.3C268.2,23.8,265.4,24.7,261.8,24.7z"/>
		</g>
		<g class="st5">
			<path class="st4" d="M261.8,22.4c-2.7,0-4.8-0.7-6.3-2c-1.5-1.4-2.3-3.2-2.3-5.6c0-2.5,0.8-4.4,2.3-5.7c1.5-1.3,3.6-2,6.3-2
				c2.8,0,4.9,0.7,6.4,2c1.5,1.3,2.2,3.2,2.2,5.7c0,2.4-0.7,4.3-2.2,5.6C266.7,21.7,264.6,22.4,261.8,22.4z"/>
		</g>
		<g>
			<path class="st4" d="M261.8,20.1c-1.9,0-3.4-0.5-4.4-1.4c-1.1-0.9-1.6-2.3-1.6-3.9c0-1.7,0.5-3.1,1.6-4c1.1-0.9,2.5-1.4,4.4-1.4
				c2,0,3.4,0.5,4.5,1.4c1,0.9,1.5,2.3,1.5,4c0,1.7-0.5,3-1.5,3.9C265.3,19.6,263.8,20.1,261.8,20.1z"/>
		</g>
		<g class="st2">
			<path class="st6" d="M180.1,24.7c-3.5,0-6.3-0.9-8.2-2.6c-2-1.8-2.9-4.2-2.9-7.3c0-3.2,1-5.7,2.9-7.4c2-1.7,4.7-2.6,8.2-2.6
				c3.6,0,6.4,0.9,8.3,2.6c1.9,1.7,2.9,4.2,2.9,7.4c0,3.1-1,5.6-2.9,7.3C186.5,23.8,183.8,24.7,180.1,24.7z"/>
		</g>
		<g class="st5">
			<path class="st6" d="M180.1,22.4c-2.7,0-4.8-0.7-6.3-2c-1.5-1.4-2.3-3.2-2.3-5.6c0-2.5,0.8-4.4,2.3-5.7c1.5-1.3,3.6-2,6.3-2
				c2.8,0,4.9,0.7,6.4,2c1.5,1.3,2.2,3.2,2.2,5.7c0,2.4-0.7,4.3-2.2,5.6C185.1,21.7,182.9,22.4,180.1,22.4z"/>
		</g>
		<g>
			<path class="st6" d="M180.1,20.1c-1.9,0-3.4-0.5-4.4-1.4c-1.1-0.9-1.6-2.3-1.6-3.9c0-1.7,0.5-3.1,1.6-4c1.1-0.9,2.5-1.4,4.4-1.4
				c2,0,3.4,0.5,4.5,1.4c1,0.9,1.5,2.3,1.5,4c0,1.7-0.5,3-1.5,3.9C183.6,19.6,182.1,20.1,180.1,20.1z"/>
		</g>
	</g>
	<g>
		<g>
			<g>
				<path class="st6" d="M19.2,68.5c-0.1-4.7,0.4-8.4,0.9-10.8c0,0,3.3-17,3.3-18.7c0-0.7-0.1-1.1-0.1-1.1c-0.7-1.4-0.9-2.9-0.5-4.4
					c0.6-2.5,2.5-3.9,4.9-3.5c1,0.2,2,0.8,2.9,1.4c0.7,0.5,1.2,0.6,2,0.3c6.9-2.2,13.9-2.2,20.8,0c0.7,0.2,1.2,0.3,1.9-0.3
					c0.6-0.5,1.4-0.9,2.1-1.2c2.3-0.9,4.6,0.1,5.5,2.4c0.7,1.8,0.6,3.5-0.2,5.2c0,0-0.1,0.3-0.1,1C62,43.5,65,54.9,65,54.9
					c0.9,3,1.8,7.6,1.8,13.6C65.8,69.7,55,81.1,39.1,79.2C27.8,77.8,21,70.5,19.2,68.5z M59.1,52.6c0.1-0.1,0.1-0.2,0.2-0.3
					c-0.7-0.6-1.4-1.3-2.2-1.7c-0.9-0.5-2-0.6-3-1c-0.3-0.1-0.7-0.3-0.9-0.6c-1-1.5-2.3-2.7-3.9-3.4c-3.3-1.5-6.7-1.7-10.2-0.8
					c-2.7,0.7-5,2-6.6,4.4c-0.1,0.2-0.5,0.3-0.8,0.4c-1,0.3-2.2,0.5-3.1,1c-0.8,0.4-1.4,1.1-2.1,1.7c0.1,0.1,0.1,0.2,0.2,0.3
					c1.5-0.9,3.2-1.6,5-1.5c0.3,0.9,0,1.4-0.7,1.9c-1.6,1-2.9,2.4-3.7,4.2c1.4-1,2.8-1.9,4.3-2.9c0.8-0.5,1.4-0.4,1.9,0.4
					c-0.7,0.9-1.5,1.7-1.5,3c0.3-0.2,0.6-0.5,0.8-0.8c1-1,2-1.7,3.7-1.3c3.1,0.7,4.2-0.2,5.1-3.2c0.5-1.9-0.1-3.2-2-3.9
					c-0.3-0.1-0.5-0.3-0.8-0.5c0.2-0.3,0.4-0.6,0.7-0.8c2.2-1.1,4.5-1.1,6.7,0c0.3,0.2,0.5,0.5,0.8,0.8c-0.3,0.2-0.5,0.5-0.8,0.6
					c-1.6,0.6-2.4,1.9-2,3.5c0.2,0.7,0.4,1.4,0.7,2c0.6,1.2,1.5,1.9,2.9,1.8c0.8,0,1.6-0.1,2.3-0.3c0.7-0.2,1.3-0.1,1.8,0.4
					c0.7,0.6,1.3,1.2,2,1.8c0.1-0.1,0.2-0.1,0.2-0.2c-0.6-1-1.1-2-1.7-3c0.4-0.7,1.1-0.8,1.8-0.3c1.4,1,2.9,1.9,4.3,2.9
					c-0.1-0.2-0.2-0.6-0.4-0.8C57.1,55.2,56,54,54.8,53c-0.7-0.6-0.9-1-0.7-1.8C55.9,51,57.5,51.7,59.1,52.6z M31.9,46.5
					c0.1-0.1-0.8-1.4-1.9-1.2c-1,0.2-1.3,1.6-1.2,1.7c0.1,0.1,0.5-0.7,1.3-0.9C31.1,45.9,31.8,46.6,31.9,46.5z M53.9,45.7
					c0.1,0.1,0.8-0.4,1.7-0.1c1,0.3,1.4,1.2,1.5,1.2c0.1-0.1-0.2-1.8-1.4-2C54.7,44.5,53.8,45.5,53.9,45.7z"/>
			</g>
		</g>
		<g>
			<path class="st4" d="M43,81.2C21.9,81.2,4.8,64.1,4.8,43S21.9,4.8,43,4.8S81.2,21.9,81.2,43S64.1,81.2,43,81.2z M43,8.5
				C24,8.5,8.5,24,8.5,43C8.5,62,24,77.5,43,77.5C62,77.5,77.5,62,77.5,43C77.5,24,62,8.5,43,8.5z"/>
		</g>
		<g class="st3">
			<path class="st4" d="M43,83.9C20.4,83.9,2,65.6,2,43C2,20.4,20.4,2.1,43,2.1c22.6,0,40.9,18.4,40.9,40.9
				C83.9,65.6,65.6,83.9,43,83.9z M43,4.6C21.8,4.6,4.6,21.8,4.6,43S21.8,81.4,43,81.4S81.4,64.2,81.4,43S64.2,4.6,43,4.6z"/>
		</g>
		<g class="st7">
			<path class="st8" d="M43,86C19.3,86,0,66.7,0,43C0,19.3,19.3,0,43,0s43,19.3,43,43C86,66.7,66.7,86,43,86z M43,1.9
				C20.4,1.9,1.9,20.4,1.9,43c0,22.6,18.4,41.1,41.1,41.1S84.1,65.6,84.1,43C84.1,20.4,65.6,1.9,43,1.9z"/>
		</g>
	</g>
</g>
<g>
	<g>
		<g>
			<path class="st1" d="M715.2,78c-1.7,0-3.1-0.4-4.3-1.2c-1.1-0.8-2-2-2.7-3.6l-24.9-56c-0.7-1.6-0.9-3-0.6-4.2
				c0.3-1.2,1-2.2,2-2.9c1-0.7,2.2-1.1,3.6-1.1c1.8,0,3.2,0.4,4.2,1.2c0.9,0.8,1.7,2,2.3,3.6l22.6,52.4h-4.1L736,13.8
				c0.7-1.5,1.5-2.7,2.5-3.5c1-0.8,2.3-1.2,4-1.2c1.4,0,2.6,0.4,3.5,1.1c0.9,0.7,1.5,1.7,1.8,2.9c0.3,1.2,0,2.6-0.7,4.2l-24.9,56
				c-0.7,1.6-1.6,2.8-2.6,3.6C718.4,77.6,717,78,715.2,78z"/>
		</g>
		<g>
			<path class="st1" d="M766.1,77.9c-1.9,0-3.4-0.6-4.4-1.7c-1-1.1-1.5-2.7-1.5-4.8V36.4c0-2.1,0.5-3.7,1.5-4.8
				c1-1.1,2.5-1.7,4.4-1.7c1.9,0,3.4,0.6,4.4,1.7c1.1,1.1,1.6,2.7,1.6,4.8v35.1c0,2-0.5,3.6-1.5,4.8
				C769.6,77.4,768.1,77.9,766.1,77.9z"/>
		</g>
		<g>
			<path class="st1" d="M811.5,78.2c-3.9,0-7.4-1-10.4-3c-3-2-4.9-4.6-5.9-7.9l1.1-2.4v7c0,2-0.5,3.5-1.5,4.5
				c-1,1.1-2.5,1.6-4.3,1.6c-1.9,0-3.4-0.5-4.4-1.6c-1-1.1-1.5-2.6-1.5-4.5V15.2c0-2,0.5-3.5,1.5-4.5c1-1,2.5-1.5,4.4-1.5
				c1.9,0,3.4,0.5,4.4,1.5c1.1,1,1.6,2.5,1.6,4.5V40h-1.1c1-3.1,3-5.6,5.9-7.5c2.9-1.9,6.3-2.9,10.2-2.9c4.1,0,7.7,1,10.8,3
				c3.1,2,5.4,4.8,7.2,8.4c1.7,3.6,2.6,7.9,2.6,12.9c0,5-0.9,9.3-2.6,12.9c-1.7,3.7-4.1,6.5-7.2,8.5
				C819.2,77.2,815.6,78.2,811.5,78.2z M808.2,69.1c2.4,0,4.4-0.6,6.2-1.7c1.8-1.1,3.2-2.8,4.2-5.1c1-2.3,1.5-5.1,1.5-8.5
				c0-5.1-1.1-8.9-3.2-11.4c-2.2-2.5-5-3.8-8.6-3.8c-2.4,0-4.4,0.6-6.2,1.7c-1.8,1.1-3.2,2.8-4.2,5.1c-1,2.3-1.5,5.1-1.5,8.5
				c0,5,1.1,8.8,3.2,11.4C801.7,67.8,804.6,69.1,808.2,69.1z"/>
		</g>
		<g>
			<path class="st1" d="M847.8,77.9c-1.9,0-3.4-0.6-4.4-1.7c-1-1.1-1.5-2.7-1.5-4.8V36.4c0-2.1,0.5-3.7,1.5-4.8
				c1-1.1,2.5-1.7,4.4-1.7c1.9,0,3.4,0.6,4.4,1.7c1.1,1.1,1.6,2.7,1.6,4.8v35.1c0,2-0.5,3.6-1.5,4.8
				C851.3,77.4,849.8,77.9,847.8,77.9z"/>
		</g>
		<g>
			<path class="st1" d="M872.2,78c-1.9,0-3.4-0.5-4.4-1.6c-1-1.1-1.5-2.6-1.5-4.5V35.8c0-2,0.5-3.5,1.5-4.5c1-1,2.5-1.5,4.3-1.5
				c1.8,0,3.3,0.5,4.3,1.5c1,1,1.5,2.5,1.5,4.5v6.5l-1.1-2.4c1.4-3.4,3.6-5.9,6.5-7.7c3-1.8,6.3-2.6,10.1-2.6c3.8,0,6.8,0.7,9.3,2.1
				c2.4,1.4,4.2,3.5,5.4,6.4c1.2,2.8,1.8,6.4,1.8,10.7v23.1c0,2-0.5,3.5-1.5,4.5c-1,1.1-2.5,1.6-4.4,1.6c-1.9,0-3.4-0.5-4.4-1.6
				c-1.1-1.1-1.6-2.6-1.6-4.5V49.4c0-3.6-0.7-6.3-2.1-7.9c-1.4-1.7-3.5-2.5-6.4-2.5c-3.5,0-6.3,1.1-8.4,3.3
				c-2.1,2.2-3.1,5.1-3.1,8.7v20.9C878.2,76,876.2,78,872.2,78z"/>
		</g>
		<g class="st2">
			<path class="st4" d="M847.8,24.7c-3.5,0-6.3-0.9-8.2-2.6c-2-1.8-2.9-4.2-2.9-7.3c0-3.2,1-5.7,2.9-7.4c2-1.7,4.7-2.6,8.2-2.6
				c3.6,0,6.4,0.9,8.3,2.6c1.9,1.7,2.9,4.2,2.9,7.4c0,3.1-1,5.6-2.9,7.3C854.2,23.8,851.4,24.7,847.8,24.7z"/>
		</g>
		<g class="st5">
			<path class="st4" d="M847.8,22.4c-2.7,0-4.8-0.7-6.3-2c-1.5-1.4-2.3-3.2-2.3-5.6c0-2.5,0.8-4.4,2.3-5.7c1.5-1.3,3.6-2,6.3-2
				c2.8,0,4.9,0.7,6.4,2c1.5,1.3,2.2,3.2,2.2,5.7c0,2.4-0.7,4.3-2.2,5.6C852.7,21.7,850.6,22.4,847.8,22.4z"/>
		</g>
		<g>
			<path class="st4" d="M847.8,20.1c-1.9,0-3.4-0.5-4.4-1.4c-1.1-0.9-1.6-2.3-1.6-3.9c0-1.7,0.5-3.1,1.6-4c1.1-0.9,2.5-1.4,4.4-1.4
				c2,0,3.4,0.5,4.5,1.4c1,0.9,1.5,2.3,1.5,4c0,1.7-0.5,3-1.5,3.9C851.3,19.6,849.8,20.1,847.8,20.1z"/>
		</g>
		<g class="st2">
			<path class="st6" d="M766.1,24.7c-3.5,0-6.3-0.9-8.2-2.6c-2-1.8-2.9-4.2-2.9-7.3c0-3.2,1-5.7,2.9-7.4c2-1.7,4.7-2.6,8.2-2.6
				c3.6,0,6.4,0.9,8.3,2.6c1.9,1.7,2.9,4.2,2.9,7.4c0,3.1-1,5.6-2.9,7.3C772.5,23.8,769.8,24.7,766.1,24.7z"/>
		</g>
		<g class="st5">
			<path class="st6" d="M766.1,22.4c-2.7,0-4.8-0.7-6.3-2c-1.5-1.4-2.3-3.2-2.3-5.6c0-2.5,0.8-4.4,2.3-5.7c1.5-1.3,3.6-2,6.3-2
				c2.8,0,4.9,0.7,6.4,2c1.5,1.3,2.2,3.2,2.2,5.7c0,2.4-0.7,4.3-2.2,5.6C771.1,21.7,768.9,22.4,766.1,22.4z"/>
		</g>
		<g>
			<path class="st6" d="M766.1,20.1c-1.9,0-3.4-0.5-4.4-1.4c-1.1-0.9-1.6-2.3-1.6-3.9c0-1.7,0.5-3.1,1.6-4c1.1-0.9,2.5-1.4,4.4-1.4
				c2,0,3.4,0.5,4.5,1.4c1,0.9,1.5,2.3,1.5,4c0,1.7-0.5,3-1.5,3.9C769.6,19.6,768.1,20.1,766.1,20.1z"/>
		</g>
	</g>
	<g>
		<g>
			<g>
				<path class="st6" d="M605.2,68.5c-0.1-4.7,0.4-8.4,0.9-10.8c0,0,3.3-17,3.3-18.7c0-0.7-0.1-1.1-0.1-1.1
					c-0.7-1.4-0.9-2.9-0.5-4.4c0.6-2.5,2.5-3.9,4.9-3.5c1,0.2,2,0.8,2.9,1.4c0.7,0.5,1.2,0.6,2,0.3c6.9-2.2,13.9-2.2,20.8,0
					c0.7,0.2,1.2,0.3,1.9-0.3c0.6-0.5,1.4-0.9,2.1-1.2c2.3-0.9,4.6,0.1,5.5,2.4c0.7,1.8,0.6,3.5-0.2,5.2c0,0-0.1,0.3-0.1,1
					c-0.5,4.7,2.5,16.1,2.5,16.1c0.9,3,1.8,7.6,1.8,13.6c-1.1,1.2-11.9,12.6-27.7,10.7C613.8,77.8,607,70.5,605.2,68.5z M645.1,52.6
					c0.1-0.1,0.1-0.2,0.2-0.3c-0.7-0.6-1.4-1.3-2.2-1.7c-0.9-0.5-2-0.6-3-1c-0.3-0.1-0.7-0.3-0.9-0.6c-1-1.5-2.3-2.7-3.9-3.4
					c-3.3-1.5-6.7-1.7-10.2-0.8c-2.7,0.7-5,2-6.6,4.4c-0.1,0.2-0.5,0.3-0.8,0.4c-1,0.3-2.2,0.5-3.1,1c-0.8,0.4-1.4,1.1-2.1,1.7
					c0.1,0.1,0.1,0.2,0.2,0.3c1.5-0.9,3.2-1.6,5-1.5c0.3,0.9,0,1.4-0.7,1.9c-1.6,1-2.9,2.4-3.7,4.2c1.4-1,2.8-1.9,4.3-2.9
					c0.8-0.5,1.4-0.4,1.9,0.4c-0.7,0.9-1.5,1.7-1.5,3c0.3-0.2,0.6-0.5,0.8-0.8c1-1,2-1.7,3.7-1.3c3.1,0.7,4.2-0.2,5.1-3.2
					c0.5-1.9-0.1-3.2-2-3.9c-0.3-0.1-0.5-0.3-0.8-0.5c0.2-0.3,0.4-0.6,0.7-0.8c2.2-1.1,4.5-1.1,6.7,0c0.3,0.2,0.5,0.5,0.8,0.8
					c-0.3,0.2-0.5,0.5-0.8,0.6c-1.6,0.6-2.4,1.9-2,3.5c0.2,0.7,0.4,1.4,0.7,2c0.6,1.2,1.5,1.9,2.9,1.8c0.8,0,1.6-0.1,2.3-0.3
					c0.7-0.2,1.3-0.1,1.8,0.4c0.7,0.6,1.3,1.2,2,1.8c0.1-0.1,0.2-0.1,0.2-0.2c-0.6-1-1.1-2-1.7-3c0.4-0.7,1.1-0.8,1.8-0.3
					c1.4,1,2.9,1.9,4.3,2.9c-0.1-0.2-0.2-0.6-0.4-0.8c-1.1-1.2-2.1-2.4-3.4-3.4c-0.7-0.6-0.9-1-0.7-1.8
					C641.9,51,643.5,51.7,645.1,52.6z M617.9,46.5c0.1-0.1-0.8-1.4-1.9-1.2c-1,0.2-1.3,1.6-1.2,1.7c0.1,0.1,0.5-0.7,1.3-0.9
					C617.1,45.9,617.8,46.6,617.9,46.5z M639.9,45.7c0.1,0.1,0.8-0.4,1.7-0.1c1,0.3,1.4,1.2,1.5,1.2c0.1-0.1-0.2-1.8-1.4-2
					C640.7,44.5,639.8,45.5,639.9,45.7z"/>
			</g>
		</g>
		<g>
			<path class="st4" d="M629,81.2c-21.1,0-38.2-17.1-38.2-38.2S607.9,4.8,629,4.8s38.2,17.1,38.2,38.2S650.1,81.2,629,81.2z
				 M629,8.5c-19,0-34.5,15.5-34.5,34.5c0,19,15.5,34.5,34.5,34.5c19,0,34.5-15.5,34.5-34.5C663.5,24,648,8.5,629,8.5z"/>
		</g>
		<g class="st3">
			<path class="st4" d="M629,83.9C606.4,83.9,588,65.6,588,43c0-22.6,18.4-40.9,40.9-40.9c22.6,0,40.9,18.4,40.9,40.9
				C669.9,65.6,651.6,83.9,629,83.9z M629,4.6c-21.2,0-38.4,17.2-38.4,38.4s17.2,38.4,38.4,38.4s38.4-17.2,38.4-38.4
				S650.2,4.6,629,4.6z"/>
		</g>
		<g class="st7">
			<path class="st8" d="M629,86c-23.7,0-43-19.3-43-43c0-23.7,19.3-43,43-43s43,19.3,43,43C672,66.7,652.7,86,629,86z M629,1.9
				c-22.6,0-41.1,18.4-41.1,41.1c0,22.6,18.4,41.1,41.1,41.1s41.1-18.4,41.1-41.1C670.1,20.4,651.6,1.9,629,1.9z"/>
		</g>
	</g>
</g>
</svg>
